<?xml version="1.0" encoding="UTF-8" standalone="no"?><!DOCTYPE svg PUBLIC "-//W3C//DTD SVG 1.1//EN" "http://www.w3.org/Graphics/SVG/1.1/DTD/svg11.dtd"><svg width="100%" height="100%" viewBox="0 0 251 251" version="1.1" xmlns="http://www.w3.org/2000/svg" xmlns:xlink="http://www.w3.org/1999/xlink" xml:space="preserve" xmlns:serif="http://www.serif.com/" style="fill-rule:evenodd;clip-rule:evenodd;stroke-linejoin:round;stroke-miterlimit:2;"><rect id="eighth_rest" x="0.696" y="0.668" width="250" height="250" style="fill:none;"/><g id="eighth_rest1" serif:id="eighth_rest"><path d="M105.766,77.282c-4.355,0.2 -14.715,-0.55 -18.802,-0.55c-20.632,0 -36.519,-18.048 -36.519,-38.68c-0,-20.633 16.751,-37.384 37.384,-37.384c20.632,0 37.383,16.751 37.383,37.384c0,8.999 -3.186,17.259 -8.491,23.713c2.839,0.666 5.762,1.093 8.767,1.257c18.735,1.02 40.232,-8.124 64.437,-31.703c2.218,-2.16 5.653,-2.454 8.205,-0.7c2.552,1.753 3.511,5.064 2.29,7.91c-61.24,142.74 -88,212.139 -88,212.139l-30.91,0c-0,0 42.093,-66.189 96.266,-192.31c-22.399,16.973 -62.639,18.494 -72.01,18.924Z"/></g></svg>