<?xml version="1.0" encoding="UTF-8" standalone="no"?><!DOCTYPE svg PUBLIC "-//W3C//DTD SVG 1.1//EN" "http://www.w3.org/Graphics/SVG/1.1/DTD/svg11.dtd"><svg width="100%" height="100%" viewBox="0 0 251 250" version="1.1" xmlns="http://www.w3.org/2000/svg" xmlns:xlink="http://www.w3.org/1999/xlink" xml:space="preserve" xmlns:serif="http://www.serif.com/" style="fill-rule:evenodd;clip-rule:evenodd;stroke-linejoin:round;stroke-miterlimit:2;"><rect id="quarter_note" x="0.392" y="0" width="250" height="250" style="fill:none;"/><g id="quarter_note1" serif:id="quarter_note"><g id="レイヤー-1" serif:id="レイヤー 1"><g><path d="M165.144,195.773c7.924,13.271 -1.75,33.64 -21.606,45.502c-19.852,11.859 -42.373,10.711 -50.298,-2.547c-7.925,-13.27 1.749,-33.639 21.606,-45.497c19.856,-11.863 42.373,-10.724 50.298,2.542" style="fill:#231f20;fill-rule:nonzero;"/><path d="M163.403,203.993c-2.245,0 -4.068,-1.814 -4.068,-4.068l0,-189.252c0,-2.241 1.823,-4.068 4.068,-4.068c2.246,0 4.068,1.827 4.068,4.068l0,189.252c0,2.254 -1.822,4.068 -4.068,4.068" style="fill:#231f20;fill-rule:nonzero;"/></g></g></g></svg>