<?xml version="1.0" encoding="UTF-8" standalone="no"?><!DOCTYPE svg PUBLIC "-//W3C//DTD SVG 1.1//EN" "http://www.w3.org/Graphics/SVG/1.1/DTD/svg11.dtd"><svg width="100%" height="100%" viewBox="0 0 251 251" version="1.1" xmlns="http://www.w3.org/2000/svg" xmlns:xlink="http://www.w3.org/1999/xlink" xml:space="preserve" xmlns:serif="http://www.serif.com/" style="fill-rule:evenodd;clip-rule:evenodd;stroke-linejoin:round;stroke-miterlimit:2;"><rect id="sixteenth_note_1" x="0.685" y="0.75" width="250" height="250" style="fill:none;"/><g id="sixteenth_note_11" serif:id="sixteenth_note_1"><path d="M139.365,188.059c7.418,12.421 -1.637,31.491 -20.223,42.59c-18.582,11.1 -39.661,10.03 -47.079,-2.383c-7.418,-12.421 1.637,-31.487 20.223,-42.587c18.586,-11.103 39.662,-10.037 47.079,2.38" style="fill:black;fill-rule:nonzero;"/><path d="M139.705,11.46l0,26.788c0,-0 30.76,22.622 37.657,31.851c3.441,4.599 11.653,23.579 -2.639,42.271c-2.504,3.279 1.695,5.446 8.559,-0.905c10.271,-9.497 10.13,-22.26 4.923,-43.177c-2.299,-9.225 -48.5,-56.828 -48.5,-56.828" style="fill:black;fill-rule:nonzero;"/><path d="M139.705,64.067l0,23.233c0,-0 30.76,19.621 37.657,27.626c3.441,3.988 11.653,20.45 -2.639,36.662c-2.504,2.844 1.695,4.723 8.559,-0.784c10.271,-8.238 10.13,-19.307 4.923,-37.449c-2.299,-8.001 -48.5,-49.288 -48.5,-49.288" style="fill:black;fill-rule:nonzero;"/><path d="M137.736,195.753c-2.101,-0 -3.807,-1.698 -3.807,-3.808l-0,-177.142c-0,-2.098 1.706,-3.807 3.807,-3.807c2.102,-0 3.808,1.709 3.808,3.807l0,177.142c0,2.11 -1.706,3.808 -3.808,3.808" style="fill:black;fill-rule:nonzero;"/></g></svg>