<?xml version="1.0" encoding="UTF-8" standalone="no"?><!DOCTYPE svg PUBLIC "-//W3C//DTD SVG 1.1//EN" "http://www.w3.org/Graphics/SVG/1.1/DTD/svg11.dtd"><svg width="100%" height="100%" viewBox="0 0 251 251" version="1.1" xmlns="http://www.w3.org/2000/svg" xmlns:xlink="http://www.w3.org/1999/xlink" xml:space="preserve" xmlns:serif="http://www.serif.com/" style="fill-rule:evenodd;clip-rule:evenodd;stroke-linejoin:round;stroke-miterlimit:2;"><rect id="eighth_note_1" x="0.783" y="0.75" width="250" height="250" style="fill:none;"/><g id="eighth_note_11" serif:id="eighth_note_1"><g id="レイヤー-1" serif:id="レイヤー 1"><g><path d="M139.463,188.059c7.418,12.421 -1.637,31.491 -20.223,42.59c-18.582,11.1 -39.662,10.03 -47.079,-2.383c-7.418,-12.421 1.637,-31.487 20.223,-42.587c18.586,-11.103 39.662,-10.037 47.079,2.38" style="fill:black;fill-rule:nonzero;"/><path d="M139.803,11.544l0,43.078c0,-0 31.38,36.379 38.417,51.222c3.511,7.395 11.888,37.918 -2.692,67.976c-2.555,5.274 1.729,8.758 8.731,-1.454c10.479,-15.273 10.334,-35.797 5.023,-69.435c-2.346,-14.835 -49.479,-91.387 -49.479,-91.387" style="fill:black;fill-rule:nonzero;"/></g><path d="M137.834,195.753c-2.102,-0 -3.807,-1.698 -3.807,-3.808l-0,-177.142c-0,-2.098 1.705,-3.807 3.807,-3.807c2.102,-0 3.808,1.709 3.808,3.807l0,177.142c0,2.11 -1.706,3.808 -3.808,3.808" style="fill:black;fill-rule:nonzero;"/></g></g></svg>