<?xml version="1.0" encoding="UTF-8" standalone="no"?><!DOCTYPE svg PUBLIC "-//W3C//DTD SVG 1.1//EN" "http://www.w3.org/Graphics/SVG/1.1/DTD/svg11.dtd"><svg width="100%" height="100%" viewBox="0 0 251 251" version="1.1" xmlns="http://www.w3.org/2000/svg" xmlns:xlink="http://www.w3.org/1999/xlink" xml:space="preserve" xmlns:serif="http://www.serif.com/" style="fill-rule:evenodd;clip-rule:evenodd;stroke-linejoin:round;stroke-miterlimit:2;"><rect id="sixteenth_rest" x="0.868" y="0.668" width="250" height="250" style="fill:none;"/><clipPath id="_clip1"><rect id="sixteenth_rest1" serif:id="sixteenth_rest" x="0.868" y="0.668" width="250" height="250" fill="black"/></clipPath><g clip-path="url(#_clip1)"><path d="M155.502,140.48c-20.15,13.08 -53.795,14.295 -61.83,14.647c-3.858,0.169 -13.037,-0.465 -16.658,-0.465c-18.281,-0 -32.356,-15.256 -32.356,-32.698c-0,-17.441 14.841,-31.601 33.122,-31.601c18.28,-0 33.122,14.16 33.122,31.601c-0,7.607 -2.823,14.59 -7.524,20.046c2.516,0.563 5.106,0.924 7.768,1.062c15.564,0.809 33.278,-5.936 53.105,-23.209c9.521,-22.282 19.914,-46.104 30.865,-70.428c-19.846,14.348 -55.498,15.634 -63.801,15.997c-3.858,0.169 -13.037,-0.465 -16.658,-0.465c-18.281,0 -32.357,-15.256 -32.357,-32.697c0,-17.442 14.842,-31.602 33.122,-31.602c18.281,0 33.122,14.16 33.122,31.602c0,7.607 -2.823,14.59 -7.523,20.046c2.516,0.562 5.105,0.923 7.768,1.062c16.599,0.862 35.645,-6.867 57.091,-26.799c1.965,-1.827 5.009,-2.075 7.27,-0.593c2.261,1.482 3.111,4.282 2.029,6.687c-54.259,120.663 -77.969,220.328 -77.969,220.328l-27.386,0c0,0 18.263,-47.478 45.678,-112.521Z" fill="black"/></g></svg>