<?xml version="1.0" encoding="UTF-8" standalone="no"?><!DOCTYPE svg PUBLIC "-//W3C//DTD SVG 1.1//EN" "http://www.w3.org/Graphics/SVG/1.1/DTD/svg11.dtd"><svg width="100%" height="100%" viewBox="0 0 251 251" version="1.1" xmlns="http://www.w3.org/2000/svg" xmlns:xlink="http://www.w3.org/1999/xlink" xml:space="preserve" xmlns:serif="http://www.serif.com/" style="fill-rule:evenodd;clip-rule:evenodd;stroke-linejoin:round;stroke-miterlimit:2;"><rect id="triplets" x="0.392" y="0.75" width="250" height="250" style="fill:none;"/><g id="triplets1" serif:id="triplets"><g><g><g><path d="M73.128,193.746c5.703,9.55 -1.259,24.209 -15.549,32.746c-14.287,8.535 -30.494,7.709 -36.197,-1.832c-5.703,-9.55 1.259,-24.209 15.549,-32.743c14.29,-8.538 30.494,-7.718 36.197,1.829" style="fill-rule:nonzero;" fill="black"/><path d="M71.876,199.662c-1.616,-0 -2.928,-1.306 -2.928,-2.928l0,-136.199c0,-1.613 1.312,-2.927 2.928,-2.927c1.616,-0 2.928,1.314 2.928,2.927l-0,136.199c-0,1.622 -1.312,2.928 -2.928,2.928" style="fill-rule:nonzero;" fill="black"/></g><g><path d="M220.03,193.746c5.703,9.55 -1.259,24.209 -15.549,32.746c-14.287,8.535 -30.494,7.709 -36.198,-1.832c-5.703,-9.55 1.259,-24.209 15.549,-32.743c14.29,-8.538 30.495,-7.718 36.198,1.829" style="fill-rule:nonzero;" fill="black"/><path d="M218.778,199.662c-1.616,-0 -2.928,-1.306 -2.928,-2.928l0,-136.199c0,-1.613 1.312,-2.927 2.928,-2.927c1.616,-0 2.927,1.314 2.927,2.927l0,136.199c0,1.622 -1.311,2.928 -2.927,2.928" style="fill-rule:nonzero;" fill="black"/></g><g><path d="M146.579,193.746c5.703,9.55 -1.259,24.209 -15.549,32.746c-14.287,8.535 -30.494,7.709 -36.197,-1.832c-5.704,-9.55 1.258,-24.209 15.548,-32.743c14.29,-8.538 30.495,-7.718 36.198,1.829" style="fill-rule:nonzero;" fill="black"/><path d="M145.327,199.662c-1.616,-0 -2.928,-1.306 -2.928,-2.928l0,-136.199c0,-1.613 1.312,-2.927 2.928,-2.927c1.616,-0 2.927,1.314 2.927,2.927l0,136.199c0,1.622 -1.311,2.928 -2.927,2.928" style="fill-rule:nonzero;" fill="black"/></g><rect x="68.923" y="53.011" width="152.779" height="18.122" fill="black"/><path d="M221.702,53.011l0,18.122l-152.779,0l-0,-18.122l152.779,-0Zm-2,2l-148.779,-0l-0,14.122l148.779,0l0,-14.122Z" fill="black"/></g><path d="M139.648,28.205l-0,-2.067l1.476,-0c2.362,-0 3.888,-0.492 4.577,-1.476c0.59,-0.788 0.886,-2.313 0.886,-4.577c-0,-4.134 -1.526,-6.201 -4.577,-6.201c-1.083,-0 -2.018,0.295 -2.805,0.886c-0.689,0.59 -1.132,1.328 -1.329,2.214l0.886,-0.147c0.984,-0 1.722,0.344 2.214,1.033c0.493,0.492 0.739,1.181 0.739,2.067c-0,1.181 -0.394,2.116 -1.181,2.805c-0.689,0.689 -1.526,1.034 -2.51,1.034c-1.378,-0 -2.461,-0.542 -3.248,-1.624c-0.689,-0.886 -1.034,-1.969 -1.034,-3.248c0,-2.067 1.034,-3.79 3.101,-5.168c1.87,-1.181 4.133,-1.771 6.791,-1.771c3.051,-0 5.463,0.787 7.234,2.362c1.575,1.378 2.362,3.149 2.362,5.315c0,2.067 -0.738,3.74 -2.214,5.02c-1.28,1.181 -3.002,1.919 -5.168,2.214l0,0.148c5.906,1.181 8.859,4.084 8.859,8.71c-0,2.658 -1.181,4.823 -3.544,6.496c-2.165,1.477 -4.872,2.215 -8.12,2.215c-3.248,0 -5.807,-0.837 -7.677,-2.51c-1.673,-1.476 -2.51,-3.199 -2.51,-5.167c0,-1.28 0.443,-2.313 1.329,-3.101c0.787,-0.689 1.673,-1.033 2.658,-1.033c1.279,-0 2.313,0.443 3.1,1.329c0.591,0.689 0.886,1.525 0.886,2.51c-0,1.771 -1.034,2.952 -3.101,3.543c0.099,0.787 0.591,1.378 1.477,1.772c0.787,0.393 1.771,0.59 2.953,0.59c3.74,0 5.61,-2.264 5.61,-6.791c-0,-3.15 -0.591,-5.266 -1.772,-6.349c-0.886,-0.787 -2.608,-1.181 -5.167,-1.181c-0.591,0 -0.984,0.049 -1.181,0.148Z" style="fill-rule:nonzero;" fill="black"/></g></g></svg>